<svg xmlns="http://www.w3.org/2000/svg" width="16" height="16" fill="none"><g clip-path="url(#a)"><rect width="22" height="16" x="-3" fill="#1A47B8" rx="2"/><path fill="#fff" fill-rule="evenodd" d="M-.66 0H-3v2.667L16.647 16H19v-2.667L-.66 0Z" clip-rule="evenodd"/><path fill="#F93939" d="M-2.22 0 19 14.438V16h-.762L-3 1.547V0h.78Z"/><path fill="#fff" fill-rule="evenodd" d="M16.905 0H19v2.667S5.391 11.55-.905 16H-3v-2.667L16.905 0Z" clip-rule="evenodd"/><path fill="#F93939" d="M19 0h-.71L-3 14.45V16h.78L19 1.559V0Z"/><path fill="#fff" fill-rule="evenodd" d="M5 0h6.018v4.935H19v6.127h-7.982V16H5v-4.938H-3V4.935h8V0Z" clip-rule="evenodd"/><path fill="#F93939" fill-rule="evenodd" d="M6.263 0h3.474v6.154H19v3.692H9.737V16H6.263V9.846H-3V6.154h9.263V0Z" clip-rule="evenodd"/></g><defs><clipPath id="a"><rect width="22" height="16" x="-3" fill="#fff" rx="2"/></clipPath></defs></svg>
