<svg xmlns="http://www.w3.org/2000/svg" width="16" height="16" fill="none"><g clip-path="url(#a)"><rect width="22" height="16" x="-3" fill="#F93939" rx="2"/><path fill="#F93939" d="M16.905 0H-.905C-2.062 0-3 .955-3 2.133v11.734C-3 15.045-2.062 16-.905 16h17.81C18.062 16 19 15.045 19 13.867V2.133C19 .955 18.062 0 16.905 0Z"/><path fill="#FFDA2C" fill-rule="evenodd" d="M-3 4.267h22v7.466H-3V4.267Z" clip-rule="evenodd"/><path fill="#D4AF2C" fill-rule="evenodd" d="M6.429 6.637v2.688c0 .747-.704 1.344-1.572 1.344H2.762c-.865-.002-1.572-.603-1.572-1.346V6.635c0-.61.47-1.12 1.115-1.286.195-.554.794-.057 1.504-.057.715 0 1.31-.494 1.505.058.643.17 1.115.68 1.115 1.287Z" clip-rule="evenodd"/><path fill="#CBCBCB" fill-rule="evenodd" d="M6.429 7.467h1.047v3.2H6.43v-3.2Zm-6.286 0H1.19v3.2H.143v-3.2Z" clip-rule="evenodd"/><path fill="#1A47B8" fill-rule="evenodd" d="M6.429 9.6h1.047v1.067H6.43V9.6Zm-6.286 0H1.19v1.067H.143V9.6Z" clip-rule="evenodd"/><path fill="#D4AF2C" fill-rule="evenodd" d="M6.429 6.4h1.047v1.067H6.43V6.4Zm-6.286 0H1.19v1.067H.143V6.4Z" clip-rule="evenodd"/><path fill="#AF010D" fill-rule="evenodd" d="M2.238 6.4h1.048V8H2.238V6.4Zm2.095 2.133h1.048v1.6H4.333v-1.6Z" clip-rule="evenodd"/><path fill="#AE6A3E" fill-rule="evenodd" d="M4.333 6.4h1.048V8H4.333V6.4Z" clip-rule="evenodd"/><path fill="#FFDA2C" fill-rule="evenodd" d="M2.238 8.533h1.048v1.6H2.238v-1.6Z" clip-rule="evenodd"/><path fill="#AF010D" fill-rule="evenodd" d="M3.286 6.4 2.238 5.333h3.143L4.333 6.4H3.286Z" clip-rule="evenodd"/><path fill="#D4AF2C" fill-rule="evenodd" d="M3.286 4.267h1.047v1.066H3.286V4.267Z" clip-rule="evenodd"/></g><defs><clipPath id="a"><rect width="22" height="16" x="-3" fill="#fff" rx="2"/></clipPath></defs></svg>
